<mxfile host="Electron" agent="Mozilla/5.0 (Windows NT 10.0; Win64; x64) AppleWebKit/537.36 (KHTML, like Gecko) draw.io/28.1.2 Chrome/138.0.7204.243 Electron/37.4.0 Safari/537.36" version="28.1.2">
  <diagram name="Page-1" id="3H2hQvfidOfB-2Lf3KZS">
    <mxGraphModel dx="3354" dy="1500" grid="1" gridSize="10" guides="1" tooltips="1" connect="1" arrows="1" fold="1" page="1" pageScale="1" pageWidth="850" pageHeight="1100" math="0" shadow="0">
      <root>
        <mxCell id="0" />
        <mxCell id="1" parent="0" />
        <mxCell id="8e6OFj85tseEhBFCMdvD-69" value="" style="rounded=1;whiteSpace=wrap;html=1;fillColor=none;dashed=1;dashPattern=12 12;" parent="1" vertex="1">
          <mxGeometry x="440" y="160" width="560" height="720" as="geometry" />
        </mxCell>
        <mxCell id="8e6OFj85tseEhBFCMdvD-66" value="" style="rounded=1;whiteSpace=wrap;html=1;fillColor=none;dashed=1;dashPattern=12 12;" parent="1" vertex="1">
          <mxGeometry x="-560" y="160" width="930" height="720" as="geometry" />
        </mxCell>
        <mxCell id="8e6OFj85tseEhBFCMdvD-19" value="&lt;b&gt;Data Integration&amp;nbsp;&amp;nbsp;&lt;/b&gt;&lt;font style=&quot;font-size: 18px;&quot;&gt;(How tables are created)&lt;/font&gt;" style="text;html=1;align=center;verticalAlign=middle;resizable=0;points=[];autosize=1;strokeColor=none;fillColor=none;fontSize=40;" parent="1" vertex="1">
          <mxGeometry x="-780" y="30" width="550" height="60" as="geometry" />
        </mxCell>
        <mxCell id="8e6OFj85tseEhBFCMdvD-25" value="" style="group;rounded=1;" parent="1" vertex="1" connectable="0">
          <mxGeometry x="40" y="220" width="300" height="100" as="geometry" />
        </mxCell>
        <mxCell id="8e6OFj85tseEhBFCMdvD-20" value="crm_cust_info" style="swimlane;fontStyle=0;childLayout=stackLayout;horizontal=1;startSize=30;horizontalStack=0;resizeParent=1;resizeParentMax=0;resizeLast=0;collapsible=1;marginBottom=0;whiteSpace=wrap;html=1;rounded=1;fillColor=#dae8fc;strokeColor=#6c8ebf;fontSize=25;" parent="8e6OFj85tseEhBFCMdvD-25" vertex="1">
          <mxGeometry y="30" width="300" height="170" as="geometry" />
        </mxCell>
        <mxCell id="8e6OFj85tseEhBFCMdvD-21" value="cst_id" style="text;strokeColor=none;fillColor=none;align=left;verticalAlign=middle;spacingLeft=4;spacingRight=4;overflow=hidden;points=[[0,0.5],[1,0.5]];portConstraint=eastwest;rotatable=0;whiteSpace=wrap;html=1;fontSize=25;rounded=1;" parent="8e6OFj85tseEhBFCMdvD-20" vertex="1">
          <mxGeometry y="30" width="300" height="40" as="geometry" />
        </mxCell>
        <mxCell id="8e6OFj85tseEhBFCMdvD-58" value="cst_key" style="text;strokeColor=none;fillColor=none;align=left;verticalAlign=middle;spacingLeft=4;spacingRight=4;overflow=hidden;points=[[0,0.5],[1,0.5]];portConstraint=eastwest;rotatable=0;whiteSpace=wrap;html=1;fontSize=25;rounded=1;" parent="8e6OFj85tseEhBFCMdvD-20" vertex="1">
          <mxGeometry y="70" width="300" height="40" as="geometry" />
        </mxCell>
        <mxCell id="WxjAjW2rqGbutwaEko2v-13" value="&lt;b&gt;&lt;font style=&quot;font-size: 20px;&quot;&gt;PRODUCT&lt;/font&gt;&lt;/b&gt;" style="rounded=0;whiteSpace=wrap;html=1;fillColor=#f8cecc;strokeColor=#b85450;" vertex="1" parent="8e6OFj85tseEhBFCMdvD-20">
          <mxGeometry y="110" width="300" height="60" as="geometry" />
        </mxCell>
        <mxCell id="8e6OFj85tseEhBFCMdvD-24" value="&lt;font style=&quot;font-size: 18px;&quot;&gt;Customer Information&lt;/font&gt;" style="text;html=1;align=center;verticalAlign=middle;whiteSpace=wrap;rounded=1;" parent="8e6OFj85tseEhBFCMdvD-25" vertex="1">
          <mxGeometry width="300" height="40" as="geometry" />
        </mxCell>
        <mxCell id="8e6OFj85tseEhBFCMdvD-27" value="" style="group;rounded=1;" parent="1" vertex="1" connectable="0">
          <mxGeometry x="30" y="620" width="300" height="100" as="geometry" />
        </mxCell>
        <mxCell id="8e6OFj85tseEhBFCMdvD-28" value="crm_prd_info" style="swimlane;fontStyle=0;childLayout=stackLayout;horizontal=1;startSize=30;horizontalStack=0;resizeParent=1;resizeParentMax=0;resizeLast=0;collapsible=1;marginBottom=0;whiteSpace=wrap;html=1;rounded=1;fillColor=#dae8fc;strokeColor=#6c8ebf;fontSize=25;" parent="8e6OFj85tseEhBFCMdvD-27" vertex="1">
          <mxGeometry y="30" width="300" height="130" as="geometry" />
        </mxCell>
        <mxCell id="8e6OFj85tseEhBFCMdvD-29" value="prd_key" style="text;strokeColor=none;fillColor=none;align=left;verticalAlign=middle;spacingLeft=4;spacingRight=4;overflow=hidden;points=[[0,0.5],[1,0.5]];portConstraint=eastwest;rotatable=0;whiteSpace=wrap;html=1;fontSize=25;rounded=1;" parent="8e6OFj85tseEhBFCMdvD-28" vertex="1">
          <mxGeometry y="30" width="300" height="40" as="geometry" />
        </mxCell>
        <mxCell id="WxjAjW2rqGbutwaEko2v-12" value="&lt;b&gt;&lt;font style=&quot;font-size: 20px;&quot;&gt;CUSTOMER&lt;/font&gt;&lt;/b&gt;" style="rounded=0;whiteSpace=wrap;html=1;fillColor=#d5e8d4;strokeColor=#82b366;" vertex="1" parent="8e6OFj85tseEhBFCMdvD-28">
          <mxGeometry y="70" width="300" height="60" as="geometry" />
        </mxCell>
        <mxCell id="8e6OFj85tseEhBFCMdvD-30" value="&lt;font style=&quot;font-size: 18px;&quot;&gt;Currecnt and History of Product&lt;/font&gt;" style="text;html=1;align=center;verticalAlign=middle;whiteSpace=wrap;rounded=1;" parent="8e6OFj85tseEhBFCMdvD-27" vertex="1">
          <mxGeometry width="300" height="40" as="geometry" />
        </mxCell>
        <mxCell id="8e6OFj85tseEhBFCMdvD-37" style="edgeStyle=orthogonalEdgeStyle;rounded=0;orthogonalLoop=1;jettySize=auto;html=1;entryX=0;entryY=0.5;entryDx=0;entryDy=0;" parent="1" source="8e6OFj85tseEhBFCMdvD-33" target="8e6OFj85tseEhBFCMdvD-21" edge="1">
          <mxGeometry relative="1" as="geometry" />
        </mxCell>
        <mxCell id="8e6OFj85tseEhBFCMdvD-38" style="edgeStyle=orthogonalEdgeStyle;rounded=0;orthogonalLoop=1;jettySize=auto;html=1;entryX=0;entryY=0.5;entryDx=0;entryDy=0;" parent="1" source="8e6OFj85tseEhBFCMdvD-36" target="8e6OFj85tseEhBFCMdvD-29" edge="1">
          <mxGeometry relative="1" as="geometry" />
        </mxCell>
        <mxCell id="8e6OFj85tseEhBFCMdvD-40" value="" style="group" parent="1" vertex="1" connectable="0">
          <mxGeometry x="-520" y="410" width="300" height="150" as="geometry" />
        </mxCell>
        <mxCell id="8e6OFj85tseEhBFCMdvD-32" value="crm_prd_info" style="swimlane;fontStyle=0;childLayout=stackLayout;horizontal=1;startSize=30;horizontalStack=0;resizeParent=1;resizeParentMax=0;resizeLast=0;collapsible=1;marginBottom=0;whiteSpace=wrap;html=1;rounded=1;fillColor=#dae8fc;strokeColor=#6c8ebf;fontSize=25;" parent="8e6OFj85tseEhBFCMdvD-40" vertex="1">
          <mxGeometry y="40" width="300" height="170" as="geometry" />
        </mxCell>
        <mxCell id="8e6OFj85tseEhBFCMdvD-33" value="cst_id" style="text;strokeColor=none;fillColor=none;align=left;verticalAlign=middle;spacingLeft=4;spacingRight=4;overflow=hidden;points=[[0,0.5],[1,0.5]];portConstraint=eastwest;rotatable=0;whiteSpace=wrap;html=1;fontSize=25;rounded=1;" parent="8e6OFj85tseEhBFCMdvD-32" vertex="1">
          <mxGeometry y="30" width="300" height="40" as="geometry" />
        </mxCell>
        <mxCell id="8e6OFj85tseEhBFCMdvD-36" value="prd_key" style="text;strokeColor=none;fillColor=none;align=left;verticalAlign=middle;spacingLeft=4;spacingRight=4;overflow=hidden;points=[[0,0.5],[1,0.5]];portConstraint=eastwest;rotatable=0;whiteSpace=wrap;html=1;fontSize=25;rounded=1;" parent="8e6OFj85tseEhBFCMdvD-32" vertex="1">
          <mxGeometry y="70" width="300" height="40" as="geometry" />
        </mxCell>
        <mxCell id="WxjAjW2rqGbutwaEko2v-2" value="&lt;b&gt;SALES&lt;/b&gt;" style="rounded=0;whiteSpace=wrap;html=1;fillColor=#e1d5e7;strokeColor=#9673a6;" vertex="1" parent="8e6OFj85tseEhBFCMdvD-32">
          <mxGeometry y="110" width="300" height="60" as="geometry" />
        </mxCell>
        <mxCell id="8e6OFj85tseEhBFCMdvD-34" value="&lt;font style=&quot;font-size: 18px;&quot;&gt;Transaction Details of Records about Sales and Orders&lt;/font&gt;" style="text;html=1;align=center;verticalAlign=middle;whiteSpace=wrap;rounded=1;" parent="8e6OFj85tseEhBFCMdvD-40" vertex="1">
          <mxGeometry width="300" height="40" as="geometry" />
        </mxCell>
        <mxCell id="8e6OFj85tseEhBFCMdvD-49" value="" style="group" parent="1" vertex="1" connectable="0">
          <mxGeometry x="600" y="190" width="300" height="110" as="geometry" />
        </mxCell>
        <mxCell id="8e6OFj85tseEhBFCMdvD-44" value="&lt;blockquote style=&quot;margin: 0 0 0 40px; border: none; padding: 0px;&quot;&gt;erp_cust_az12&lt;/blockquote&gt;" style="swimlane;fontStyle=0;childLayout=stackLayout;horizontal=1;startSize=30;horizontalStack=0;resizeParent=1;resizeParentMax=0;resizeLast=0;collapsible=1;marginBottom=0;whiteSpace=wrap;html=1;rounded=1;fillColor=#ffe6cc;strokeColor=#d79b00;fontSize=25;" parent="8e6OFj85tseEhBFCMdvD-49" vertex="1">
          <mxGeometry y="40" width="300" height="120" as="geometry" />
        </mxCell>
        <mxCell id="8e6OFj85tseEhBFCMdvD-45" value="cid" style="text;strokeColor=none;fillColor=none;align=left;verticalAlign=middle;spacingLeft=4;spacingRight=4;overflow=hidden;points=[[0,0.5],[1,0.5]];portConstraint=eastwest;rotatable=0;whiteSpace=wrap;html=1;fontSize=25;rounded=1;" parent="8e6OFj85tseEhBFCMdvD-44" vertex="1">
          <mxGeometry y="30" width="300" height="40" as="geometry" />
        </mxCell>
        <mxCell id="WxjAjW2rqGbutwaEko2v-14" value="&lt;b&gt;&lt;font style=&quot;font-size: 20px;&quot;&gt;PRODUCT&lt;/font&gt;&lt;/b&gt;" style="rounded=0;whiteSpace=wrap;html=1;fillColor=#f8cecc;strokeColor=#b85450;" vertex="1" parent="8e6OFj85tseEhBFCMdvD-44">
          <mxGeometry y="70" width="300" height="50" as="geometry" />
        </mxCell>
        <mxCell id="8e6OFj85tseEhBFCMdvD-46" value="&lt;span style=&quot;font-size: 18px;&quot;&gt;Extra Customer Information(Birthday)&lt;/span&gt;" style="text;html=1;align=center;verticalAlign=middle;whiteSpace=wrap;rounded=1;" parent="8e6OFj85tseEhBFCMdvD-49" vertex="1">
          <mxGeometry width="300" height="40" as="geometry" />
        </mxCell>
        <mxCell id="8e6OFj85tseEhBFCMdvD-54" value="" style="group" parent="1" vertex="1" connectable="0">
          <mxGeometry x="600" y="660" width="300" height="110" as="geometry" />
        </mxCell>
        <mxCell id="8e6OFj85tseEhBFCMdvD-55" value="&lt;blockquote style=&quot;margin: 0 0 0 40px; border: none; padding: 0px;&quot;&gt;erp_px_cat_g1v2&lt;/blockquote&gt;" style="swimlane;fontStyle=0;childLayout=stackLayout;horizontal=1;startSize=30;horizontalStack=0;resizeParent=1;resizeParentMax=0;resizeLast=0;collapsible=1;marginBottom=0;whiteSpace=wrap;html=1;rounded=1;fillColor=#ffe6cc;strokeColor=#d79b00;fontSize=25;" parent="8e6OFj85tseEhBFCMdvD-54" vertex="1">
          <mxGeometry y="40" width="300" height="120" as="geometry" />
        </mxCell>
        <mxCell id="8e6OFj85tseEhBFCMdvD-56" value="id" style="text;strokeColor=none;fillColor=none;align=left;verticalAlign=middle;spacingLeft=4;spacingRight=4;overflow=hidden;points=[[0,0.5],[1,0.5]];portConstraint=eastwest;rotatable=0;whiteSpace=wrap;html=1;fontSize=25;rounded=1;" parent="8e6OFj85tseEhBFCMdvD-55" vertex="1">
          <mxGeometry y="30" width="300" height="40" as="geometry" />
        </mxCell>
        <mxCell id="WxjAjW2rqGbutwaEko2v-16" value="&lt;b&gt;&lt;font style=&quot;font-size: 20px;&quot;&gt;CUSTOMER&lt;/font&gt;&lt;/b&gt;" style="rounded=0;whiteSpace=wrap;html=1;fillColor=#d5e8d4;strokeColor=#82b366;" vertex="1" parent="8e6OFj85tseEhBFCMdvD-55">
          <mxGeometry y="70" width="300" height="50" as="geometry" />
        </mxCell>
        <mxCell id="8e6OFj85tseEhBFCMdvD-57" value="&lt;span style=&quot;font-size: 18px;&quot;&gt;Extra Customer Information(Location)&lt;/span&gt;" style="text;html=1;align=center;verticalAlign=middle;whiteSpace=wrap;rounded=1;" parent="8e6OFj85tseEhBFCMdvD-54" vertex="1">
          <mxGeometry width="300" height="40" as="geometry" />
        </mxCell>
        <mxCell id="8e6OFj85tseEhBFCMdvD-59" style="edgeStyle=orthogonalEdgeStyle;rounded=0;orthogonalLoop=1;jettySize=auto;html=1;exitX=0;exitY=0.5;exitDx=0;exitDy=0;entryX=1;entryY=0.5;entryDx=0;entryDy=0;" parent="1" source="8e6OFj85tseEhBFCMdvD-45" target="8e6OFj85tseEhBFCMdvD-58" edge="1">
          <mxGeometry relative="1" as="geometry" />
        </mxCell>
        <mxCell id="8e6OFj85tseEhBFCMdvD-63" style="edgeStyle=orthogonalEdgeStyle;rounded=0;orthogonalLoop=1;jettySize=auto;html=1;exitX=0;exitY=0.5;exitDx=0;exitDy=0;entryX=1;entryY=0.5;entryDx=0;entryDy=0;" parent="1" source="8e6OFj85tseEhBFCMdvD-52" target="8e6OFj85tseEhBFCMdvD-58" edge="1">
          <mxGeometry relative="1" as="geometry" />
        </mxCell>
        <mxCell id="8e6OFj85tseEhBFCMdvD-64" style="edgeStyle=orthogonalEdgeStyle;rounded=0;orthogonalLoop=1;jettySize=auto;html=1;exitX=0;exitY=0.75;exitDx=0;exitDy=0;entryX=1.011;entryY=0.322;entryDx=0;entryDy=0;entryPerimeter=0;" parent="1" source="8e6OFj85tseEhBFCMdvD-55" target="8e6OFj85tseEhBFCMdvD-29" edge="1">
          <mxGeometry relative="1" as="geometry" />
        </mxCell>
        <mxCell id="8e6OFj85tseEhBFCMdvD-68" value="&lt;font style=&quot;font-size: 35px;&quot;&gt;CRM&lt;/font&gt;" style="rounded=1;whiteSpace=wrap;html=1;fillColor=#dae8fc;strokeColor=#6c8ebf;" parent="1" vertex="1">
          <mxGeometry x="-222.5" y="140" width="255" height="60" as="geometry" />
        </mxCell>
        <mxCell id="8e6OFj85tseEhBFCMdvD-70" value="&lt;font style=&quot;font-size: 35px;&quot;&gt;ERP&lt;/font&gt;" style="rounded=1;whiteSpace=wrap;html=1;fillColor=#ffe6cc;strokeColor=#d79b00;" parent="1" vertex="1">
          <mxGeometry x="610" y="120" width="220" height="60" as="geometry" />
        </mxCell>
        <mxCell id="WxjAjW2rqGbutwaEko2v-18" value="" style="group" vertex="1" connectable="0" parent="1">
          <mxGeometry x="600" y="440" width="300" height="160" as="geometry" />
        </mxCell>
        <mxCell id="8e6OFj85tseEhBFCMdvD-51" value="&lt;blockquote style=&quot;margin: 0 0 0 40px; border: none; padding: 0px;&quot;&gt;erp_loca101&lt;/blockquote&gt;" style="swimlane;fontStyle=0;childLayout=stackLayout;horizontal=1;startSize=30;horizontalStack=0;resizeParent=1;resizeParentMax=0;resizeLast=0;collapsible=1;marginBottom=0;whiteSpace=wrap;html=1;rounded=1;fillColor=#ffe6cc;strokeColor=#d79b00;fontSize=25;" parent="WxjAjW2rqGbutwaEko2v-18" vertex="1">
          <mxGeometry y="40" width="300" height="120" as="geometry" />
        </mxCell>
        <mxCell id="8e6OFj85tseEhBFCMdvD-52" value="cid" style="text;strokeColor=none;fillColor=none;align=left;verticalAlign=middle;spacingLeft=4;spacingRight=4;overflow=hidden;points=[[0,0.5],[1,0.5]];portConstraint=eastwest;rotatable=0;whiteSpace=wrap;html=1;fontSize=25;rounded=1;" parent="8e6OFj85tseEhBFCMdvD-51" vertex="1">
          <mxGeometry y="30" width="300" height="40" as="geometry" />
        </mxCell>
        <mxCell id="WxjAjW2rqGbutwaEko2v-15" value="&lt;b&gt;&lt;font style=&quot;font-size: 20px;&quot;&gt;CUSTOMER&lt;/font&gt;&lt;/b&gt;" style="rounded=0;whiteSpace=wrap;html=1;fillColor=#d5e8d4;strokeColor=#82b366;" vertex="1" parent="8e6OFj85tseEhBFCMdvD-51">
          <mxGeometry y="70" width="300" height="50" as="geometry" />
        </mxCell>
        <mxCell id="8e6OFj85tseEhBFCMdvD-53" value="&lt;span style=&quot;font-size: 18px;&quot;&gt;Extra Customer Information(Location)&lt;/span&gt;" style="text;html=1;align=center;verticalAlign=middle;whiteSpace=wrap;rounded=1;" parent="WxjAjW2rqGbutwaEko2v-18" vertex="1">
          <mxGeometry width="300" height="40" as="geometry" />
        </mxCell>
      </root>
    </mxGraphModel>
  </diagram>
</mxfile>
